<?xml version="1.0" encoding="utf-8"?>
<!-- Svg Vector Icons : http://www.onlinewebfonts.com/icon -->
<!DOCTYPE svg PUBLIC "-//W3C//DTD SVG 1.1//EN" "http://www.w3.org/Graphics/SVG/1.1/DTD/svg11.dtd">
<svg version="1.1" xmlns="http://www.w3.org/2000/svg" xmlns:xlink="http://www.w3.org/1999/xlink" x="0px" y="0px" viewBox="0 0 1000 1000" enable-background="new 0 0 1000 1000" xml:space="preserve">
<metadata> Svg Vector Icons : http://www.onlinewebfonts.com/icon </metadata>
<g><g transform="translate(0.000000,512.000000) scale(0.100000,-0.100000)"><path d="M796.4,4983.2c-80.5-47.9-210.8-251-251-383.2c-42.1-145.6-38.3-394.7,9.6-578.7c21.1-78.6,95.8-297,164.8-484.8c151.4-404.3,183.9-521.2,183.9-659.2c0-141.8-32.6-239.5-109.2-329.6c-78.6-90.1-101.6-161-78.6-243.3c21.1-84.3,99.6-139.9,191.6-139.9c103.5,0,224.2,115,312.3,295.1c153.3,316.2,128.4,594-115,1218.7c-226.1,580.6-237.6,762.6-67.1,979.2c78.6,95.8,90.1,180.1,38.3,262.5C1012.9,5021.5,901.8,5046.4,796.4,4983.2z"/><path d="M1984.4,4956.3c-182-126.5-277.8-341.1-239.5-542.3c28.7-147.5,82.4-274,208.8-490.5c214.6-369.8,222.3-421.6,80.5-565.3c-82.4-84.3-95.8-109.2-95.8-174.4c0-141.8,132.2-243.3,258.7-195.4c84.3,32.6,191.6,126.5,256.8,222.3c132.2,201.2,115,429.2-57.5,751.1c-295.1,546.1-297,553.8-161,680.2c107.3,99.6,126.5,182,67.1,277.8C2229.7,5036.8,2118.6,5048.3,1984.4,4956.3z"/><path d="M3187.8,4960.2c-134.1-65.1-185.9-122.6-214.6-229.9c-36.4-132.2,1.9-216.5,170.5-383.2l147.5-147.5l-53.7-44.1c-107.3-90.1-101.6-256.8,9.6-323.8c74.7-46,113.1-47.9,233.8-7.7c132.2,46,270.2,184,287.4,289.3c19.2,122.6-49.8,258.7-205,396.6l-124.6,113.1l55.6,49.8c138,124.6,44.1,346.8-145.6,346.8C3323.8,5019.6,3252.9,4992.8,3187.8,4960.2z"/><path d="M5569.5,3388.9c-843.1-36.4-1421.8-224.2-2351.1-760.7c-1600-923.6-1776.2-1030.9-2090.5-1264.7C505.2,899.9,204.3,436.2,118.1-192.3c-38.3-285.5-19.2-691.7,90.1-1801.2c115-1193.7,130.3-1272.3,293.2-1588.5c118.8-228,245.3-398.6,423.5-567.2c442.6-415.8,1036.6-628.5,1760.9-630.4c295.1,0,327.7,3.8,479,53.7c647.7,214.6,1270.4,709,2454.6,1946.8c666.8,699.4,1326,1362.4,1531,1540.6c231.8,203.1,452.2,362.1,620.8,446.5c124.5,63.2,153.3,69,433,92c362.2,30.7,584.4,80.5,797.1,180.1c193.5,92,293.2,159,427.3,291.2c210.8,207,358.3,500.1,436.9,864.2c28.8,136,34.5,258.7,34.5,868c0,779.9-3.8,820.1-116.9,1053.9c-235.7,496.3-843.1,753-1925.7,814.4C7443.5,3394.7,5956.6,3406.2,5569.5,3388.9z M7456.9,2969.3c906.3-23,1201.4-67.1,1567.4-243.4c377.5-180.1,500.1-410.1,463.7-869.9c-26.8-323.8-120.7-534.6-343-770.3c-302.8-320-732-505.9-1274.2-549.9c-128.4-11.5-274-23-327.7-26.8c-199.3-15.3-498.2-174.4-795.2-423.5c-78.6-67.1-260.6-239.5-402.4-385.1C6077.3-573.6,5947-721.2,5163.3-1639C4092.2-2892.2,3484.8-3417.2,2963.6-3537.9c-335.3-78.6-793.3,32.6-1161.2,281.7c-712.8,479-1283.8,1692-1285.7,2728.6C514.8,1.2,645,340.4,984.2,698.7c264.4,279.8,595.9,509.7,1423.7,986.8c243.3,139.9,617,358.3,833.5,484.8c942.7,551.9,1479.3,751.1,2165.2,804.8C5586.8,2988.5,6803.5,2986.6,7456.9,2969.3z M9461.2,708.3c-61.3-291.3-187.8-526.9-364.1-682.1c-212.7-187.8-580.6-312.3-921.6-314.3c-293.2-1.9-519.3-76.6-820.1-274c-377.5-249.1-755-599.7-1623-1508c-387.1-406.2-862.3-892.9-1055.8-1082.6C3887.2-3925,3335.3-4300.5,2881.2-4369.5c-149.5-23-500.1,0-730,47.9c-674.5,141.8-1184.2,559.5-1381.6,1132.4c-32.6,92-105.4,561.4-90.1,576.8c3.8,1.9,65.2-88.2,138-199.3c155.2-233.8,463.7-567.2,670.6-724.3c379.4-283.6,804.8-431.1,1255.1-431.1c251,0,435,49.8,718.6,191.6c580.6,291.3,1075,762.6,2232.3,2126.9c776,914,1142,1299.1,1458.2,1532.9c245.3,182,329.6,214.6,620.8,231.9c678.3,44.1,1197.6,243.3,1586.6,611.3c65.2,61.3,120.7,109.2,122.6,107.3S9474.6,775.3,9461.2,708.3z"/><path d="M5510.1,2532.4c-69-44.1-111.1-147.5-92-222.3c5.7-26.8,36.4-69,65.1-93.9c44.1-38.3,88.1-47.9,302.8-67.1c438.8-38.3,891-151.4,1373.9-343c387.1-153.3,442.6-182,812.5-431.1c61.3-42.1,120.7-44.1,195.4-3.8c69,34.5,120.7,141.8,103.5,216.5c-47.9,218.4-894.8,634.2-1714.9,845c-252.9,65.1-565.3,115-785.6,126.5C5592.5,2568.8,5563.8,2565,5510.1,2532.4z"/><path d="M2616.8,1275.4c-72.8-72.8-84.3-147.5-36.4-239.5c34.5-67.1,97.7-92,268.3-107.3c502-46,1521.4-285.5,2088.6-492.5c241.5-88.1,396.6-162.9,532.7-256.8c51.7-36.4,115-65.1,141.8-65.1c124.6,0,231.9,132.2,207,251c-51.8,233.8-942.8,582.5-2146.1,839.3c-318.1,67.1-766.5,136-896.8,136C2695.3,1340.6,2672.3,1331,2616.8,1275.4z"/><path d="M2417.5,87.4c-459.9-97.7-732-362.1-680.2-661.1c28.7-168.6,218.5-358.3,448.4-444.5c191.6-70.9,392.8-99.6,643.8-88.2c458,19.2,785.6,174.4,902.5,425.4c143.7,304.7-59.4,592.1-519.3,737.7C3040.2,110.4,2609.1,127.7,2417.5,87.4z M3076.6-337.9c63.2-15.3,153.3-51.7,199.3-78.6c113.1-65.1,105.4-113-34.5-182c-287.4-143.7-854.6-115-1050,51.7c-44.1,38.3-47.9,47.9-23,76.7c36.4,44.1,153.3,101.6,274,134.1C2580.3-299.6,2929.1-299.6,3076.6-337.9z"/></g></g>
</svg>