<?xml version="1.0" encoding="utf-8"?>
<!-- Svg Vector Icons : http://www.onlinewebfonts.com/icon -->
<!DOCTYPE svg PUBLIC "-//W3C//DTD SVG 1.1//EN" "http://www.w3.org/Graphics/SVG/1.1/DTD/svg11.dtd">
<svg version="1.1" xmlns="http://www.w3.org/2000/svg" xmlns:xlink="http://www.w3.org/1999/xlink" x="0px" y="0px" viewBox="0 0 1000 1000" enable-background="new 0 0 1000 1000" xml:space="preserve">
<metadata> Svg Vector Icons : http://www.onlinewebfonts.com/icon </metadata>
<g><g transform="translate(0.000000,511.000000) scale(0.100000,-0.100000)"><path d="M3212,4996.6c-416.7-54.4-758.3-284.7-944.7-634.1c-98.3-186.3-134.6-315.8-163.1-592.7c-51.8-504.7-264-711.8-784.2-766.1c-132-12.9-279.5-36.2-328.7-51.8c-693.6-225.2-1032.7-908.5-836-1690.1c93.2-383.1,274.3-660,711.8-1102.6c509.9-517.6,610.8-833.4,486.6-1501.2c-126.8-691.1,380.5-1594.4,1115.5-1980c240.7-126.8,427.1-186.4,678.1-222.6c183.8-25.9,251.1-23.3,517.6,23.3c243.3,44,336.5,49.2,460.7,28.5c370.1-59.5,592.7-191.5,970.6-577.2c377.9-385.6,672.9-572,1074.1-675.5c194.1-51.8,572-59.5,760.9-15.5c333.9,80.2,652.3,320.9,807.5,616c100.9,191.5,132,300.2,163,597.9c51.8,494.4,261.4,704,755.8,755.8c419.3,44,654.8,144.9,885.1,375.3c243.3,240.7,357.2,551.3,357.2,957.6c0,538.3-212.3,975.8-719.5,1472.7c-292.5,287.3-419.3,458.1-499.6,675.5c-95.7,256.2-106.1,406.4-51.8,737.6c77.6,460.7,28.5,773.9-186.3,1193.2c-264,509.9-755.7,913.6-1317.4,1087.1c-225.2,69.9-631.5,82.8-828.2,25.9c-157.9-46.6-408.9-41.4-587.5,10.3c-282.1,80.2-442.6,188.9-771.3,515.1c-170.8,168.2-377.9,352-463.3,408.9C4086.8,4934.5,3633.9,5051,3212,4996.6z M3763.3,4403.9c258.8-77.6,450.3-212.2,799.8-553.9c455.5-445.2,766.1-618.6,1255.3-693.6c160.5-23.3,240.7-23.3,409,5.2c346.8,56.9,569.4,62.1,735.1,12.9c496.9-144.9,929.1-556.5,1094.8-1045.6c62.1-189,62.1-429.6,0-786.8c-41.4-243.3-12.9-504.7,88-794.6c106.1-310.6,256.3-528,623.8-905.9c269.2-276.9,359.8-388.2,432.3-535.8c217.4-434.8,194.1-892.9-59.6-1144c-126.8-124.2-271.8-178.6-564.2-207.1c-398.5-41.4-641.8-152.7-874.8-396c-217.4-232.9-305.4-445.2-346.8-836c-15.5-142.4-46.6-305.4-72.5-362.4c-191.5-421.9-763.5-525.4-1309.6-238.1c-103.5,54.4-271.8,194.1-504.7,421.9c-489.2,471.1-797.2,644.5-1276,711.8c-181.2,28.5-258.8,25.9-424.5-2.6c-357.2-62.1-597.9-62.1-786.8,0c-465.9,157.9-885.2,574.6-1030.1,1030.1c-64.7,201.9-67.3,427.1-2.6,789.4c41.4,243.3,12.9,504.7-88,794.6c-106.1,310.6-256.2,528-623.8,905.9C968,850.3,877.5,961.6,805,1109.1c-217.4,434.8-194.1,892.9,59.5,1144c124.2,124.2,256.2,176,540.9,207.1c134.6,15.5,292.5,41.4,349.4,56.9c383.1,106.1,732.5,458.1,838.6,838.6c15.5,56.9,41.4,212.2,54.4,346.8c31.1,284.7,85.4,424.5,220,553.9C3067.1,4450.5,3426.9,4510,3763.3,4403.9z"/><path d="M5344.7,2421.3c-54.4-38.8-57-54.4-57-450.3c0-411.5,0-414.1,64.7-455.5c59.6-38.8,69.9-38.8,129.4,0c64.7,41.4,64.7,44,64.7,455.5c0,396-2.6,411.5-56.9,450.3c-31.1,23.3-64.7,41.4-72.5,41.4C5409.4,2462.7,5375.8,2444.6,5344.7,2421.3z"/><path d="M2955.8,2144.4c-155.3-103.5-165.6-331.3-18.1-440c56.9-41.4,121.6-56.9,292.5-62.1c942.1-38.8,2200-957.6,2999.8-2187c292.5-450.4,543.5-1056,608.2-1470.1c64.7-401.2,121.6-491.8,313.2-491.8c207.1,0,297.6,163.1,256.2,460.7C7270.3-1052.1,6675,3.9,5751.1,896.9c-742.8,716.9-1480.5,1144-2192.2,1268.2C3235.3,2222,3061.9,2216.9,2955.8,2144.4z"/><path d="M7405,907.2c-44-23.3-46.6-90.6-46.6-799.8c0-740.2,2.6-776.5,49.2-802.3c69.9-36.2,121.6-33.6,168.2,15.5c36.3,33.6,41.4,142.3,41.4,799.8c0,727.3-2.6,763.5-49.2,789.4C7505.9,940.9,7461.9,940.9,7405,907.2z"/><path d="M2834.2,619.9c-18.1-18.1-31.1-62.1-31.1-98.3c0-121.7,33.6-129.4,468.5-129.4c336.5,0,414.1,7.8,447.8,41.4c49.2,46.6,51.8,98.3,15.5,168.2c-25.9,46.6-59.5,49.2-447.8,49.2C2992,651,2854.8,640.6,2834.2,619.9z"/><path d="M4462.1-1199.6c-843.8-77.6-892.9-85.4-939.5-142.3c-56.9-72.5-56.9-82.8,2.6-157.9l46.6-59.5l968,85.4c533.2,46.6,999.1,95.8,1037.9,111.3c90.6,33.6,113.9,108.7,62.1,188.9C5585.4-1093.5,5601-1090.9,4462.1-1199.6z"/></g></g>
</svg>